<?xml version="1.0" encoding="UTF-8" standalone="no"?>
<!-- Created with Inkscape (http://www.inkscape.org/) -->

<svg
   width="100"
   height="100"
   viewBox="0 0 26.458333 26.458333"
   version="1.1"
   id="svg1"
   sodipodi:docname="icon-search.svg"
   inkscape:version="1.3 (0e150ed6c4, 2023-07-21)"
   xmlns:inkscape="http://www.inkscape.org/namespaces/inkscape"
   xmlns:sodipodi="http://sodipodi.sourceforge.net/DTD/sodipodi-0.dtd"
   xmlns="http://www.w3.org/2000/svg"
   xmlns:svg="http://www.w3.org/2000/svg">
  <sodipodi:namedview
     id="namedview1"
     pagecolor="#505050"
     bordercolor="#ffffff"
     borderopacity="1"
     inkscape:showpageshadow="0"
     inkscape:pageopacity="0"
     inkscape:pagecheckerboard="1"
     inkscape:deskcolor="#505050"
     inkscape:document-units="mm"
     inkscape:zoom="10.099009"
     inkscape:cx="72.729912"
     inkscape:cy="81.443639"
     inkscape:window-width="2560"
     inkscape:window-height="1369"
     inkscape:window-x="1072"
     inkscape:window-y="-3"
     inkscape:window-maximized="1"
     inkscape:current-layer="layer1" />
  <defs
     id="defs1" />
  <g
     inkscape:label="Calque 1"
     inkscape:groupmode="layer"
     id="layer1">
    <path
       id="path16-5"
       style="color:#000000;fill:#ffffff;fill-opacity:1;stroke-width:1.03105;stroke-linecap:round;-inkscape-stroke:none;paint-order:stroke markers fill"
       d="M 10.055798,0.69650101 C 4.5055915,0.69650101 0,5.1908033 0,10.642644 c 0,5.45184 4.5055915,9.946667 10.055798,9.946667 2.484211,0 4.757784,-0.902396 6.51314,-2.386085 l 0.380375,-0.413708 0.772202,0.719931 0.152423,1.001436 4.850305,4.353374 c 1.061994,0.923696 2.360139,1.351641 3.308341,0.317067 0.948065,-1.034695 0.162602,-2.040428 -0.88932,-2.974998 -1.886057,-1.675649 -3.598148,-3.123385 -4.497068,-3.918661 -0.430332,-0.380716 -0.932581,-0.14586 -1.198293,-0.379728 -0.856712,-0.754044 -0.961431,-0.837215 -0.982635,-0.845358 l 0.28929,-0.451599 c 0.861449,-1.46633 1.35758,-3.164157 1.35758,-4.968338 0,-5.4518407 -4.506131,-9.94614299 -10.05634,-9.94614299 z m 0,2.69164319 c 3.421055,0 7.29368,3.8011171 7.29368,7.2544998 0,3.453382 -3.872625,7.255024 -7.29368,7.255024 -3.4210532,0 -7.2952979,-3.801642 -7.2952979,-7.255024 0,-3.4533827 3.8742447,-7.2544998 7.2952979,-7.2544998 z"
       sodipodi:nodetypes="sssccccccsssccsssssss" />
  </g>
</svg>
