<?xml version="1.0" encoding="UTF-8" standalone="no"?>
<svg
   viewBox="0 0 32 32"
   width="96px"
   height="96px"
   version="1.1"
   id="svg4"
   sodipodi:docname="icon-link.svg"
   inkscape:version="1.1.2 (b8e25be833, 2022-02-05)"
   xmlns:inkscape="http://www.inkscape.org/namespaces/inkscape"
   xmlns:sodipodi="http://sodipodi.sourceforge.net/DTD/sodipodi-0.dtd"
   xmlns="http://www.w3.org/2000/svg"
   xmlns:svg="http://www.w3.org/2000/svg">
  <defs
     id="defs8">
    <pattern
       id="EMFhbasepattern"
       patternUnits="userSpaceOnUse"
       width="6"
       height="6"
       x="0"
       y="0" />
  </defs>
  <sodipodi:namedview
     id="namedview6"
     pagecolor="#ffffff"
     bordercolor="#111111"
     borderopacity="1"
     inkscape:pageshadow="0"
     inkscape:pageopacity="0"
     inkscape:pagecheckerboard="1"
     showgrid="false"
     inkscape:zoom="4.2083334"
     inkscape:cx="148.27723"
     inkscape:cy="63.80198"
     inkscape:window-width="3200"
     inkscape:window-height="1721"
     inkscape:window-x="2391"
     inkscape:window-y="-993"
     inkscape:window-maximized="1"
     inkscape:current-layer="svg4" />
  <path
     id="path824-4"
     style="fill:#111111;fill-opacity:1;fill-rule:nonzero;stroke:none;stroke-width:0.69198"
     d="M 69.191406 9.4375 C 65.649693 9.4327105 62.181876 10.653682 59.521484 13.365234 L 47.527344 25.589844 C 42.932394 30.273159 42.855313 36.156128 45.392578 41 L 50.974609 35.505859 C 50.07184 33.608314 51.284939 31.55052 52.761719 30.09375 L 64.642578 18.373047 C 67.547751 15.507237 72.899658 16.825629 76.128906 19.824219 C 79.127493 22.592145 80.30304 28.721752 77.388672 31.615234 L 66.4375 42.486328 C 64.723264 44.188273 62.603305 45.297626 61.101562 44.462891 L 55.09375 50.599609 C 61.129441 53.388427 66.684921 51.847555 70.59375 48.115234 L 82.587891 36.662109 C 88.614396 30.907734 87.432529 20.977643 81.666016 14.980469 C 78.422352 11.477313 73.745037 9.4436579 69.191406 9.4375 z M 59.005859 33.380859 C 57.888584 33.40547 56.820106 33.993391 56.017578 34.914062 C 48.867099 41.833881 41.947162 48.984482 35.027344 55.904297 C 33.182059 57.749582 32.543354 59.729953 34.333984 61.671875 C 35.968851 63.444872 38.493223 62.830254 40.332031 60.978516 L 61.238281 39.925781 C 62.915983 38.297423 63.507726 36.243873 61.595703 34.455078 C 60.772189 33.684637 59.874852 33.361718 59.005859 33.380859 z M 34.371094 44.691406 C 30.717358 44.649001 27.442121 46.15418 24.876953 48.603516 L 12.882812 60.056641 C 6.8563057 65.811016 8.0401264 75.741107 13.806641 81.738281 C 19.573153 87.966113 29.868323 89.551351 35.949219 83.353516 L 47.943359 71.128906 C 52.538309 66.445591 52.617343 60.562622 50.080078 55.71875 L 44.498047 61.212891 C 45.400816 63.110436 44.187718 65.16823 42.710938 66.625 L 30.830078 78.345703 C 27.924905 81.211513 22.571045 79.893121 19.341797 76.894531 C 16.343211 74.126605 15.169615 67.996998 18.083984 65.103516 L 29.033203 54.232422 C 30.74744 52.530477 32.869351 51.421124 34.371094 52.255859 L 40.376953 46.119141 C 38.302184 45.160484 36.284955 44.713619 34.371094 44.691406 z "
     transform="scale(0.33333333)" />
</svg>
