<?xml version="1.0" encoding="UTF-8" standalone="no"?>
<svg
   viewBox="0 0 48 48"
   width="96px"
   height="96px"
   version="1.1"
   id="svg3"
   sodipodi:docname="icon-refresh.svg"
   inkscape:version="1.3 (0e150ed6c4, 2023-07-21)"
   xmlns:inkscape="http://www.inkscape.org/namespaces/inkscape"
   xmlns:sodipodi="http://sodipodi.sourceforge.net/DTD/sodipodi-0.dtd"
   xmlns="http://www.w3.org/2000/svg"
   xmlns:svg="http://www.w3.org/2000/svg">
  <g
     id="path1">
    <path
       id="path3"
       style="color:#000000;fill:#777777;-inkscape-stroke:none;paint-order:stroke markers fill;fill-opacity:1"
       d="M 24 5.1796875 C 13.635998 5.1796875 5.1796875 13.635998 5.1796875 24 C 5.1796875 34.364002 13.635998 42.820312 24 42.820312 L 24 37.765625 C 16.367918 37.765625 10.234375 31.632082 10.234375 24 C 10.234375 16.367918 16.367918 10.234375 24 10.234375 C 30.660981 10.234375 36.179804 14.906283 37.476562 21.168945 L 36.045898 21.168945 A 1.7495306 1.7495306 0 0 0 34.481445 23.701172 L 39.026367 32.791016 A 1.4154 1.4154 0 0 0 41.558594 32.791016 L 46.103516 23.701172 A 1.7495306 1.7495306 0 0 0 44.539062 21.168945 L 42.606445 21.168945 C 41.23367 12.13921 33.402142 5.1796875 24 5.1796875 z " />
    <g
       id="g2" />
  </g>
  <defs
     id="defs3" />
  <sodipodi:namedview
     id="namedview3"
     pagecolor="#505050"
     bordercolor="#ffffff"
     borderopacity="1"
     inkscape:showpageshadow="0"
     inkscape:pageopacity="0"
     inkscape:pagecheckerboard="1"
     inkscape:deskcolor="#505050"
     inkscape:zoom="3.9895833"
     inkscape:cx="48"
     inkscape:cy="48"
     inkscape:window-width="2560"
     inkscape:window-height="1369"
     inkscape:window-x="1072"
     inkscape:window-y="-8"
     inkscape:window-maximized="1"
     inkscape:current-layer="path1" />
</svg>
