<?xml version="1.0" encoding="UTF-8" standalone="no"?>
<svg
   viewBox="0 0 32 32"
   width="96px"
   height="96px"
   version="1.1"
   id="svg4"
   sodipodi:docname="icons8-docs.svg"
   inkscape:version="1.1.2 (b8e25be833, 2022-02-05)"
   xmlns:inkscape="http://www.inkscape.org/namespaces/inkscape"
   xmlns:sodipodi="http://sodipodi.sourceforge.net/DTD/sodipodi-0.dtd"
   xmlns="http://www.w3.org/2000/svg"
   xmlns:svg="http://www.w3.org/2000/svg">
  <defs
     id="defs8" />
  <sodipodi:namedview
     id="namedview6"
     pagecolor="#ffffff"
     bordercolor="#111111"
     borderopacity="1"
     inkscape:pageshadow="0"
     inkscape:pageopacity="0"
     inkscape:pagecheckerboard="1"
     showgrid="false"
     inkscape:zoom="8.4166667"
     inkscape:cx="93.089109"
     inkscape:cy="61.960396"
     inkscape:window-width="3200"
     inkscape:window-height="1721"
     inkscape:window-x="2391"
     inkscape:window-y="-993"
     inkscape:window-maximized="1"
     inkscape:current-layer="svg4" />
  <path
     d="M 8,3 C 6.90625,3 6,3.90625 6,5 v 22 c 0,1.09375 0.90625,2 2,2 h 16 c 1.09375,0 2,-0.90625 2,-2 V 10.893645 C 26,9.7510728 25.74468,9.3071802 25.070295,8.6327948 L 20.372585,3.9350854 C 19.584522,3.1470225 19.098869,3.0035283 17.978715,3 Z m 0,2 h 9 v 5 c 0,1.09375 0.90625,2 2,2 h 5 V 27 H 8 Z M 19,5.4375 23.5625,10 H 19 Z M 11,15 v 2 h 10 v -2 z m 0,3 v 2 h 10 v -2 z m 0,3 v 2 h 5 v -2 z"
     id="path2"
     sodipodi:nodetypes="ssssssssscsccssccccccccccccccccccccccc"
     style="fill:#111111;fill-opacity:1" />
</svg>
